<?xml version="1.0" encoding="UTF-8"?>
<svg id="Camada_1" data-name="Camada 1" xmlns="http://www.w3.org/2000/svg" width="882.5" height="313.54" viewBox="0 0 882.5 313.54">
  <defs>
    <style>
      .cls-1 {
        fill: #04169e;
      }

      .cls-2 {
        fill: #161616;
      }

      .cls-3 {
        fill: #f6810d;
      }
    </style>
  </defs>
  <g>
    <polygon class="cls-2" points="294.83 265.66 264.65 265.66 263.09 272.36 273.9 272.36 267.76 298.87 276.42 298.87 282.55 272.36 293.27 272.36 294.83 265.66"/>
    <path class="cls-2" d="M310.04,274.64c-1.73-.92-3.82-1.38-6.26-1.38-2.95,0-5.49.64-7.62,1.91-2.13,1.27-3.77,3.01-4.93,5.21-1.15,2.2-1.74,4.7-1.74,7.52,0,2.28.52,4.28,1.56,5.99,1.04,1.71,2.5,3.04,4.38,4,1.88.96,4.06,1.44,6.54,1.44,1.88,0,3.61-.24,5.21-.73,1.59-.48,2.98-1.18,4.18-2.09,1.19-.9,2.07-1.99,2.64-3.27l-7.04-2.77c-.41.83-.97,1.53-1.71,2.09-.74.55-1.71.83-2.92.83-.97,0-1.82-.19-2.54-.58-.72-.39-1.29-.95-1.71-1.69-.4-.7-.59-1.56-.61-2.57h17.39c.2-.67.33-1.36.4-2.06.07-.7.1-1.38.1-2.01,0-2.28-.45-4.26-1.36-5.93-.91-1.68-2.22-2.98-3.95-3.9ZM307.15,283.93h-8.99c.17-.55.28-1.13.54-1.64.47-.92,1.1-1.67,1.89-2.24.79-.57,1.78-.85,3-.85.73,0,1.37.14,1.91.43.54.28.96.71,1.25,1.28.3.57.45,1.29.45,2.16,0,.27-.02.56-.05.86Z"/>
    <path class="cls-2" d="M328.66,282.37c.52-.91,1.15-1.64,1.88-2.19.74-.55,1.57-.83,2.52-.83,1.37,0,2.34.41,2.89,1.21.55.8.78,1.86.68,3.17l8.2-1.31c-.07-1.85-.6-3.45-1.59-4.83-.99-1.37-2.35-2.45-4.07-3.22-1.73-.77-3.75-1.15-6.06-1.15-3.05,0-5.66.66-7.82,1.99-2.16,1.33-3.81,3.09-4.93,5.31-1.13,2.22-1.69,4.68-1.69,7.39,0,2.22.51,4.18,1.51,5.91,1.01,1.73,2.45,3.08,4.35,4.07,1.89.99,4.17,1.48,6.82,1.48,2.85,0,5.31-.62,7.37-1.86,2.06-1.24,3.56-2.95,4.5-5.13l-7.64-2.47c-.3,1.04-.85,1.87-1.63,2.49-.79.62-1.63.93-2.54.93s-1.69-.19-2.34-.58c-.65-.39-1.16-.93-1.51-1.63-.35-.7-.53-1.53-.53-2.47,0-1.11.14-2.2.43-3.29.28-1.09.69-2.09,1.21-2.99Z"/>
    <path class="cls-2" d="M371.46,274.39c-1.23-.79-2.74-1.18-4.55-1.18-2.35,0-4.41.67-6.18,2.01-1.24.94-2.13,2.26-2.84,3.77l.83-5.28h-7.6l-5.83,25.15h8.55l3.17-13.58c.27-1.21.65-2.22,1.13-3.04.49-.82,1.07-1.44,1.76-1.86.69-.42,1.48-.63,2.39-.63,1.21,0,2.08.37,2.62,1.13.54.75.65,1.8.35,3.14l-3.47,14.84h8.55l3.72-15.89c.47-2.05.46-3.79-.02-5.23-.49-1.44-1.34-2.56-2.57-3.35Z"/>
    <path class="cls-2" d="M398.6,274.72c-1.84-1-4.05-1.51-6.64-1.51-3.06,0-5.65.66-7.77,1.99-2.13,1.33-3.76,3.1-4.88,5.33-1.12,2.23-1.69,4.7-1.69,7.42,0,2.15.51,4.09,1.51,5.81s2.44,3.09,4.3,4.1c1.86,1.01,4.06,1.51,6.62,1.51,3.05,0,5.64-.66,7.77-1.99,2.13-1.32,3.75-3.11,4.88-5.36,1.12-2.25,1.69-4.71,1.69-7.4,0-2.18-.5-4.13-1.51-5.83-1-1.71-2.43-3.07-4.28-4.08ZM395.58,287.22c-.27,1.09-.66,2.1-1.18,3.04-.52.94-1.14,1.68-1.86,2.24-.72.56-1.52.83-2.39.83s-1.63-.19-2.26-.58c-.64-.39-1.11-.93-1.43-1.63-.32-.7-.48-1.53-.48-2.47,0-1.11.14-2.21.43-3.32.28-1.11.69-2.12,1.21-3.04.52-.92,1.14-1.66,1.86-2.21.72-.56,1.5-.83,2.34-.83.91,0,1.67.19,2.29.58.62.39,1.09.92,1.41,1.61.32.69.47,1.52.47,2.49,0,1.11-.13,2.2-.4,3.29Z"/>
    <path class="cls-2" d="M422.9,263.05h-8.55l-6.29,27.11c-.67,2.78-.39,5,.83,6.66,1.22,1.66,3.34,2.49,6.36,2.49.9,0,1.68-.04,2.31-.13.64-.08,1.23-.24,1.76-.48l1.51-5.54c-.2.07-.45.12-.76.15-.3.03-.65.05-1.06.05-1.07,0-1.81-.28-2.21-.83-.4-.55-.45-1.39-.15-2.49l6.24-27.01Z"/>
    <path class="cls-2" d="M445.08,274.72c-1.84-1-4.05-1.51-6.64-1.51-3.05,0-5.64.66-7.77,1.99-2.13,1.33-3.76,3.1-4.88,5.33-1.13,2.23-1.69,4.7-1.69,7.42,0,2.15.51,4.09,1.51,5.81s2.44,3.09,4.3,4.1c1.86,1.01,4.06,1.51,6.62,1.51,3.05,0,5.64-.66,7.77-1.99,2.13-1.32,3.76-3.11,4.88-5.36,1.13-2.25,1.69-4.71,1.69-7.4,0-2.18-.5-4.13-1.51-5.83-1-1.71-2.43-3.07-4.28-4.08ZM442.06,287.22c-.27,1.09-.66,2.1-1.18,3.04-.52.94-1.14,1.68-1.86,2.24-.72.56-1.52.83-2.39.83s-1.63-.19-2.27-.58c-.64-.39-1.11-.93-1.43-1.63-.32-.7-.48-1.53-.48-2.47,0-1.11.14-2.21.43-3.32.29-1.11.69-2.12,1.21-3.04.52-.92,1.14-1.66,1.86-2.21.72-.56,1.5-.83,2.34-.83.91,0,1.67.19,2.29.58.62.39,1.09.92,1.41,1.61.32.69.47,1.52.47,2.49,0,1.11-.13,2.2-.4,3.29Z"/>
    <path class="cls-2" d="M473.44,279.01c-.17-.86-.42-1.65-.82-2.31-.72-1.19-1.64-2.07-2.77-2.64-1.12-.57-2.34-.85-3.65-.85-1.88,0-3.57.4-5.08,1.21-1.51.81-2.8,1.92-3.87,3.34-1.07,1.43-1.91,3.04-2.49,4.83-.59,1.79-.88,3.7-.88,5.71s.39,3.82,1.16,5.31c.77,1.5,1.83,2.63,3.17,3.42,1.34.79,2.85,1.18,4.53,1.18,2.25,0,4.13-.68,5.63-2.04.72-.65,1.31-1.45,1.81-2.36l-1.05,4.55c-.3,1.44-.71,2.58-1.23,3.42-.52.84-1.12,1.44-1.81,1.81-.69.37-1.45.55-2.29.55-1.51,0-2.54-.41-3.09-1.23-.55-.82-.86-1.93-.93-3.34l-8.6.91c.03,1.54.37,2.89,1.01,4.05.63,1.16,1.49,2.12,2.56,2.89,1.07.77,2.3,1.34,3.7,1.71,1.39.37,2.84.55,4.35.55,2.62,0,4.91-.39,6.89-1.16,1.98-.77,3.63-2.03,4.96-3.77,1.32-1.74,2.34-4.11,3.05-7.09l5.53-23.94h-8.55l-1.21,5.3ZM471.31,287.87c-.45,1.23-1.09,2.22-1.91,3-.83.77-1.79,1.16-2.89,1.16-1.37,0-2.41-.44-3.12-1.31-.71-.87-1.06-2.01-1.06-3.42,0-1.24.23-2.45.68-3.65.45-1.19,1.1-2.18,1.96-2.97.86-.79,1.89-1.18,3.1-1.18.81,0,1.5.18,2.09.55.59.37,1.04.89,1.36,1.56s.48,1.46.48,2.36c0,1.38-.23,2.68-.68,3.9Z"/>
    <polygon class="cls-2" points="483.26 298.87 491.81 298.87 497.64 273.71 489.09 273.71 483.26 298.87"/>
    <path class="cls-2" d="M498.83,263.55c-.83-.64-1.99-.96-3.5-.96-1.58,0-2.8.35-3.67,1.03-.87.69-1.39,1.8-1.56,3.34-.17,1.34.16,2.32.98,2.92.82.6,1.97.91,3.44.91,1.57,0,2.81-.33,3.69-.98.89-.66,1.42-1.8,1.59-3.45.17-1.24-.16-2.18-.98-2.82Z"/>
    <path class="cls-2" d="M518.98,278.99c-.27-1.37-.76-2.48-1.48-3.32-.72-.84-1.6-1.46-2.62-1.86-1.02-.4-2.09-.6-3.2-.6-1.91,0-3.63.44-5.15,1.33-1.53.89-2.84,2.1-3.92,3.62-1.09,1.53-1.92,3.25-2.49,5.16-.57,1.91-.85,3.87-.85,5.88,0,2.18.38,4.02,1.13,5.51.75,1.49,1.79,2.63,3.12,3.42,1.33.79,2.83,1.18,4.5,1.18s3.27-.46,4.68-1.38c1.41-.92,2.52-2.19,3.32-3.8l-.86,4.73h7.75l5.84-25.15h-8.55l-1.21,5.28ZM517.09,287.22c-.29,1.06-.69,2.03-1.21,2.92-.52.89-1.13,1.6-1.84,2.14-.7.54-1.48.8-2.31.8-.91,0-1.65-.19-2.24-.58-.59-.39-1.03-.94-1.33-1.66-.3-.72-.45-1.58-.45-2.59,0-.94.14-1.92.4-2.94.27-1.02.66-1.97,1.16-2.84.5-.87,1.12-1.58,1.86-2.14.73-.55,1.57-.83,2.51-.83.81,0,1.49.18,2.06.55.57.37,1.01.9,1.33,1.59.32.69.48,1.5.48,2.44,0,1.04-.14,2.09-.43,3.14Z"/>
    <path class="cls-2" d="M564.32,279.13c-.16-.96-.4-1.84-.83-2.55-.71-1.17-1.63-2.03-2.77-2.56-1.14-.54-2.37-.8-3.67-.8-1.88,0-3.58.44-5.1,1.33-1.52.89-2.83,2.09-3.93,3.6-1.09,1.51-1.93,3.23-2.51,5.16-.59,1.93-.88,3.9-.88,5.91,0,2.18.39,4.03,1.16,5.53.77,1.51,1.82,2.65,3.15,3.42,1.32.77,2.81,1.16,4.45,1.16,2.14,0,4.02-.74,5.63-2.24.77-.71,1.41-1.56,1.95-2.51l-3.41,14.86h8.3l8.25-35.72h-8.55l-1.24,5.42ZM562.46,287.22c-.29,1.06-.68,2.03-1.18,2.92-.5.89-1.12,1.6-1.84,2.14-.72.54-1.5.8-2.34.8s-1.61-.19-2.22-.58c-.6-.39-1.06-.94-1.35-1.66-.3-.72-.46-1.58-.46-2.59,0-.94.14-1.92.4-2.94.27-1.02.65-1.97,1.16-2.84.5-.87,1.13-1.58,1.86-2.14.74-.55,1.57-.83,2.52-.83.8,0,1.49.18,2.06.55.57.37,1.02.9,1.33,1.59.32.69.48,1.5.48,2.44,0,1.04-.14,2.09-.43,3.14Z"/>
    <path class="cls-2" d="M593.12,287.3c-.27,1.17-.63,2.17-1.08,2.99-.45.82-1.02,1.44-1.69,1.86-.67.42-1.46.63-2.36.63-1.17,0-2.05-.37-2.64-1.11-.58-.74-.71-1.79-.37-3.17l3.42-14.79h-8.55l-3.77,16.05c-.44,1.98-.39,3.68.13,5.1.52,1.42,1.4,2.52,2.64,3.29,1.24.77,2.75,1.16,4.53,1.16,2.35,0,4.38-.66,6.11-1.99,1.19-.91,2.05-2.21,2.76-3.67l-.82,5.21h7.59l5.84-25.15h-8.55l-3.17,13.58Z"/>
    <path class="cls-2" d="M627.1,274.64c-1.73-.92-3.82-1.38-6.26-1.38-2.95,0-5.49.64-7.62,1.91-2.13,1.27-3.77,3.01-4.93,5.21-1.16,2.2-1.74,4.7-1.74,7.52,0,2.28.52,4.28,1.56,5.99,1.04,1.71,2.5,3.04,4.38,4,1.88.96,4.06,1.44,6.54,1.44,1.88,0,3.61-.24,5.21-.73,1.59-.48,2.98-1.18,4.17-2.09,1.19-.9,2.07-1.99,2.64-3.27l-7.04-2.77c-.41.83-.97,1.53-1.71,2.09-.74.55-1.71.83-2.92.83-.97,0-1.82-.19-2.54-.58s-1.29-.95-1.71-1.69c-.4-.7-.59-1.56-.61-2.57h17.39c.2-.67.33-1.36.4-2.06.07-.7.1-1.38.1-2.01,0-2.28-.45-4.26-1.36-5.93-.91-1.68-2.22-2.98-3.95-3.9ZM624.21,283.93h-8.99c.17-.55.28-1.13.54-1.64.47-.92,1.1-1.67,1.88-2.24.79-.57,1.79-.85,3-.85.74,0,1.37.14,1.91.43.54.28.96.71,1.25,1.28.3.57.45,1.29.45,2.16,0,.27-.02.56-.05.86Z"/>
    <path class="cls-2" d="M670.89,273.71l-1.21,5.28c-.27-1.37-.76-2.48-1.48-3.32-.72-.84-1.6-1.46-2.62-1.86-1.02-.4-2.09-.6-3.2-.6-1.91,0-3.63.44-5.15,1.33-1.53.89-2.84,2.1-3.92,3.62-1.09,1.53-1.92,3.25-2.49,5.16-.57,1.91-.85,3.87-.85,5.88,0,2.18.38,4.02,1.13,5.51.75,1.49,1.79,2.63,3.12,3.42,1.33.79,2.83,1.18,4.5,1.18s3.27-.46,4.68-1.38c1.41-.92,2.52-2.19,3.32-3.8l-.86,4.73h7.75l5.84-25.15h-8.55ZM667.79,287.22c-.29,1.06-.69,2.03-1.21,2.92-.52.89-1.13,1.6-1.84,2.14-.71.54-1.48.8-2.31.8-.91,0-1.65-.19-2.24-.58-.58-.39-1.03-.94-1.33-1.66-.3-.72-.46-1.58-.46-2.59,0-.94.14-1.92.4-2.94.27-1.02.66-1.97,1.16-2.84.5-.87,1.12-1.58,1.86-2.14.73-.55,1.57-.83,2.52-.83.81,0,1.49.18,2.06.55.57.37,1.02.9,1.34,1.59.32.69.47,1.5.47,2.44,0,1.04-.14,2.09-.43,3.14Z"/>
    <path class="cls-2" d="M705.06,274.39c-1.23-.75-2.64-1.13-4.25-1.13s-3,.35-4.35,1.06c-1.36.7-2.51,1.7-3.44,2.99-.33.46-.59.98-.85,1.5l.9-5.1h-7.75l-8.25,35.72h8.55l3.67-15.86c.19.97.48,1.85.96,2.56.77,1.12,1.77,1.95,3,2.46,1.22.52,2.51.78,3.85.78,1.78,0,3.39-.45,4.85-1.36,1.46-.91,2.72-2.12,3.77-3.65,1.05-1.52,1.87-3.26,2.44-5.2.57-1.95.86-3.92.86-5.94,0-2.15-.35-3.96-1.06-5.46-.71-1.49-1.67-2.61-2.89-3.37ZM700.14,287.25c-.29,1.04-.68,2-1.18,2.87-.5.87-1.11,1.58-1.84,2.14-.72.56-1.53.83-2.44.83-1.27,0-2.25-.41-2.92-1.23-.67-.82-1-1.92-1-3.3,0-1.07.13-2.14.4-3.22.27-1.07.66-2.04,1.18-2.91.52-.87,1.14-1.57,1.86-2.09.72-.52,1.52-.78,2.39-.78s1.56.18,2.17.56c.6.37,1.05.9,1.36,1.58.3.69.45,1.54.45,2.54s-.14,1.98-.43,3.02Z"/>
    <path class="cls-2" d="M733.18,273.33c-.39-.08-.86-.12-1.43-.12-1.61,0-3.05.37-4.33,1.11-1.27.74-2.35,1.76-3.22,3.07-.44.66-.84,1.39-1.19,2.18l1-5.85h-7.6l-5.84,25.15h8.55l2.72-11.62c.4-1.68.97-3.02,1.71-4.03.74-1.01,1.6-1.73,2.59-2.19.99-.45,2.01-.68,3.04-.68.71,0,1.28.04,1.74.12.45.09.85.21,1.18.38l2.06-7.19c-.27-.14-.6-.24-.98-.33Z"/>
    <path class="cls-2" d="M760.02,284.63c0-2.18-.5-4.13-1.51-5.83-1-1.71-2.43-3.07-4.27-4.08-1.85-1-4.06-1.51-6.64-1.51-3.05,0-5.64.66-7.77,1.99-2.13,1.33-3.76,3.1-4.88,5.33-1.12,2.23-1.69,4.7-1.69,7.42,0,2.15.51,4.09,1.51,5.81s2.44,3.09,4.3,4.1c1.86,1.01,4.06,1.51,6.62,1.51,3.05,0,5.64-.66,7.77-1.99,2.13-1.32,3.75-3.11,4.88-5.36,1.12-2.25,1.69-4.71,1.69-7.4ZM751.22,287.22c-.27,1.09-.66,2.1-1.18,3.04-.52.94-1.14,1.68-1.86,2.24-.72.56-1.52.83-2.39.83s-1.63-.19-2.26-.58c-.64-.39-1.11-.93-1.43-1.63-.32-.7-.48-1.53-.48-2.47,0-1.11.14-2.21.43-3.32.29-1.11.69-2.12,1.21-3.04.52-.92,1.14-1.66,1.86-2.21.73-.56,1.5-.83,2.34-.83.91,0,1.67.19,2.29.58.62.39,1.09.92,1.41,1.61.32.69.48,1.52.48,2.49,0,1.11-.13,2.2-.4,3.29Z"/>
    <polygon class="cls-2" points="792.52 273.71 782.56 273.71 776.1 282.14 773.5 273.71 764.25 273.71 769.98 285.82 757.96 298.87 768.22 298.87 774.63 290.09 777.78 298.87 786.98 298.87 780.92 286.38 792.52 273.71"/>
    <path class="cls-2" d="M798.6,263.63c-.87.69-1.39,1.8-1.56,3.34-.17,1.34.16,2.32.98,2.92.82.6,1.97.91,3.44.91,1.57,0,2.81-.33,3.69-.98.89-.66,1.42-1.8,1.59-3.45.17-1.24-.16-2.18-.98-2.82-.83-.64-1.99-.96-3.5-.96s-2.8.35-3.67,1.03Z"/>
    <polygon class="cls-2" points="790.2 298.87 798.75 298.87 804.59 273.71 796.03 273.71 790.2 298.87"/>
    <path class="cls-2" d="M846.92,274.39c-1.23-.79-2.74-1.18-4.55-1.18-2.38,0-4.47.71-6.28,2.14-1.13.89-2,2.12-2.73,3.49-.06-.36-.05-.75-.16-1.08-.49-1.46-1.33-2.58-2.52-3.37-1.19-.79-2.67-1.18-4.45-1.18-2.35,0-4.4.67-6.16,2.01-1.23.93-2.1,2.26-2.82,3.76l.83-5.27h-7.6l-5.83,25.15h8.55l3.17-13.58c.27-1.21.64-2.22,1.11-3.04.47-.82,1.05-1.44,1.76-1.86.7-.42,1.49-.63,2.37-.63,1.14,0,1.97.39,2.49,1.15.52.77.63,1.83.32,3.17l-3.47,14.79h8.55l3.16-13.64v.06c.28-1.21.65-2.22,1.12-3.04.47-.82,1.06-1.44,1.76-1.86.71-.42,1.49-.63,2.37-.63,1.14,0,1.97.39,2.49,1.15.52.77.63,1.83.33,3.17l-3.47,14.79h8.55l3.67-15.85c.5-2.05.51-3.8.03-5.26-.49-1.46-1.34-2.58-2.57-3.37Z"/>
    <path class="cls-2" d="M872.75,278.99c-.27-1.37-.76-2.48-1.49-3.32-.72-.84-1.6-1.46-2.62-1.86-1.02-.4-2.09-.6-3.2-.6-1.91,0-3.63.44-5.15,1.33-1.53.89-2.84,2.1-3.92,3.62-1.09,1.53-1.92,3.25-2.49,5.16-.57,1.91-.85,3.87-.85,5.88,0,2.18.38,4.02,1.13,5.51.75,1.49,1.79,2.63,3.12,3.42,1.33.79,2.83,1.18,4.5,1.18s3.27-.46,4.68-1.38c1.41-.92,2.51-2.19,3.32-3.8l-.86,4.73h7.75l5.84-25.15h-8.55l-1.2,5.28ZM870.86,287.22c-.29,1.06-.69,2.03-1.21,2.92-.52.89-1.13,1.6-1.84,2.14-.7.54-1.48.8-2.31.8-.91,0-1.65-.19-2.24-.58-.59-.39-1.03-.94-1.33-1.66-.3-.72-.45-1.58-.45-2.59,0-.94.14-1.92.4-2.94.27-1.02.66-1.97,1.16-2.84.5-.87,1.12-1.58,1.86-2.14.73-.55,1.57-.83,2.51-.83.81,0,1.49.18,2.06.55.57.37,1.02.9,1.34,1.59.32.69.48,1.5.48,2.44,0,1.04-.14,2.09-.43,3.14Z"/>
  </g>
  <g>
    <g>
      <path class="cls-3" d="M662.73,207.67s0,0,0,0c1.26,2.56,2.61,5.09,4.03,7.58.15.26.29.52.44.78,1.46,2.53,2.99,5.03,4.61,7.49.03.05.06.09.09.13,1.49,2.24,3.06,4.44,4.68,6.61.4.53.8,1.07,1.2,1.59,1.7,2.22,3.45,4.41,5.31,6.55,4.65,5.37,11.01,12.73,19.32,13.76.66.08,1.77.13,2.87.13s2.19-.04,2.83-.13c9.08-1.15,17.36-9.94,18.08-19.18.72-9.35-4.2-14.63-9.42-20.24-1.56-1.66-3.15-3.37-4.63-5.24-1.67-2.1-3.2-4.28-4.68-6.48-.47-.7-.92-1.41-1.37-2.12-1-1.57-1.94-3.15-2.84-4.76-.45-.8-.91-1.59-1.34-2.39-1.1-2.09-2.13-4.21-3.07-6.35-.51-1.17-.96-2.36-1.43-3.54-.43-1.09-.86-2.18-1.25-3.29-.5-1.41-.98-2.83-1.42-4.27-.23-.75-.44-1.51-.65-2.27-.99-3.5-1.83-7.03-2.45-10.59h0c-5.04-29.08,2.34-59.91,22.17-83.68,1.08-1.29,2.2-2.46,3.3-3.62l.34-.36c3.47-3.6,6.75-7.01,8.1-12.61,1.53-6.29.14-12.77-3.79-17.78-4.03-5.12-10.29-8.17-16.75-8.17-2.54,0-5.08.46-7.55,1.37-5.92,2.19-13.02,10.49-18.54,17.47-35.16,44.49-40.35,104.5-16.19,153.57Z"/>
      <path class="cls-3" d="M713.18,143.92c0,11.07,2.17,21.67,6.44,31.48,4.3,9.72,10.29,18.42,17.79,25.83l2.44,2.33c3.01,1.71,6.13,2.57,9.27,2.57,6.91,0,13.44-4.21,16.64-10.72,3.15-6.41,2.33-13.73-2.18-19.57l-.45-.57c-.92-1.2-1.81-2.35-2.73-3.46-1.2-1.48-2.3-2.87-3.29-4.2-4.2-5.61-6.93-10.87-7.61-19.81-.98-13.81,2.26-20.85,8.9-29.63l.37-.54c.78-1.02,1.62-2.07,2.57-3.26l1.54-1.89.36-.5c4.81-6.01,5.77-13.2,2.64-19.72-3.26-6.75-9.99-11.11-17.14-11.11-1.55,0-3.1.2-4.61.61-1.86.5-3.72,1.61-5.54,3.32-.44.41-.87.82-1.29,1.24-7.45,7.4-13.39,16.12-17.68,25.92-4.28,9.82-6.45,20.48-6.45,31.68Z"/>
      <path class="cls-3" d="M794.32,160.37c2.43,0,4.87-.55,7.06-1.59,5.81-2.7,9.57-8.61,9.57-15.03,0-4.96-2.18-9.61-6-12.77-2.92-2.49-6.69-3.86-10.62-3.86s-7.69,1.38-10.67,3.89c-3.79,3.17-5.96,7.81-5.96,12.74,0,6.41,3.81,12.33,9.71,15.08,2.09,1.01,4.48,1.54,6.92,1.54Z"/>
    </g>
    <g>
      <g>
        <path class="cls-1" d="M763.34,68.92c-2.72,1.16-5.37,2.45-7.9,3.84,8.11,2.06,15.01,7.72,18.77,15.5,2.13,4.45,3.04,9.04,2.7,13.66,5.65-2.59,12.03-3.91,18.99-3.91,9.4,0,17.87,2.38,25.19,7.07,7.33,4.75,12.87,11.09,16.47,18.85l3.04,6.56h-23.54c2.18,4.05,3.32,8.6,3.32,13.26,0,5.91-1.91,11.7-5.41,16.49h43.33c5.65,0,10.05-1.57,13.47-4.8,3.29-3.08,4.96-7.33,4.96-12.61-.22-10.99-2.54-21.51-6.89-31.27-4.36-9.72-10.31-18.33-17.7-25.58-7.31-7.22-15.97-12.99-25.75-17.13-9.74-4.11-20.3-6.2-31.37-6.2s-21.81,2.12-31.68,6.28Z"/>
        <path class="cls-1" d="M755.38,214.62c2.57,1.42,5.25,2.73,7.99,3.91,9.85,4.26,20.5,6.41,31.65,6.41,9.05,0,16.63-.74,23.17-2.29,6.35-1.46,11.69-3.42,15.87-5.83,3.87-2.22,6.74-4.81,8.53-7.69,1.81-2.95,2.69-5.87,2.69-8.95,0-2.52-.47-5-1.41-7.38-.99-2.41-2.33-4.55-3.98-6.36-1.58-1.73-3.52-3.15-5.76-4.2-2.16-1.01-4.48-1.5-7.1-1.5-1.68,0-3.43.26-5.34.79-1.85.53-3.82,1.46-5.87,2.78-2.52,1.47-5.41,2.67-8.6,3.56-3.22.87-7.32,1.32-12.2,1.32-6.43,0-12.54-1.33-18.21-3.95.39,4.86-.56,9.76-2.77,14.26-3.77,7.67-10.63,13.18-18.67,15.12Z"/>
      </g>
      <g>
        <path class="cls-1" d="M257.31,170.47c0,7.79,1.5,14.98,4.46,21.39,2.98,6.43,7.06,12.05,12.13,16.69,5.08,4.65,11.1,8.3,17.87,10.85,6.79,2.55,14.09,3.85,21.71,3.85,2.86,0,5.58-.51,8.07-1.53,2.48-1.01,4.6-2.39,6.31-4.1s3.08-3.8,4.1-6.23c1.01-2.44,1.52-5.12,1.52-7.98s-.51-5.37-1.52-7.8c-1.02-2.45-2.41-4.62-4.14-6.46-1.7-1.79-3.81-3.22-6.27-4.22-2.5-1.02-5.21-1.53-8.07-1.53-4.41,0-8-.93-10.68-2.76-2.9-1.98-4.51-5.01-4.79-9.14V25.49c0-2.83-.56-5.49-1.66-7.9-1.12-2.44-2.67-4.61-4.6-6.44-1.93-1.84-4.22-3.32-6.79-4.4-2.55-1.07-5.29-1.61-8.13-1.61s-5.26.53-7.56,1.58c-2.34,1.07-4.43,2.54-6.2,4.37-1.78,1.83-3.19,3.99-4.21,6.43-1.01,2.42-1.52,5.1-1.52,7.97v144.98Z"/>
        <path class="cls-1" d="M390.99,70.23c-9.71,4.23-18.33,10.07-25.63,17.36-7.29,7.29-13.13,15.94-17.35,25.7-4.21,9.74-6.35,20.29-6.35,31.37s2.13,21.61,6.35,31.28c4.23,9.72,10.06,18.31,17.35,25.53,7.3,7.24,15.92,13.06,25.63,17.28,9.69,4.21,20.21,6.35,31.28,6.35s21.63-2.14,31.37-6.36c9.76-4.22,18.38-10.03,25.62-17.27,7.23-7.23,13.04-15.82,17.27-25.54,4.22-9.69,6.35-20.21,6.35-31.28s-2.14-21.62-6.35-31.37c-4.23-9.77-10.04-18.42-17.27-25.71-7.24-7.29-15.86-13.13-25.62-17.35-9.76-4.21-20.31-6.35-31.37-6.35s-21.58,2.13-31.28,6.35ZM450.48,116.6c3.58,3.58,6.46,7.8,8.55,12.57,2.1,4.8,3.17,10.01,3.17,15.49s-1.07,10.7-3.17,15.5c-2.09,4.76-4.97,8.99-8.55,12.56-3.59,3.59-7.86,6.43-12.71,8.46-4.84,2.03-10.08,3.06-15.58,3.06s-10.55-1.03-15.34-3.06c-4.78-2.03-9.05-4.87-12.69-8.44-3.65-3.58-6.56-7.81-8.65-12.58-2.1-4.79-3.16-10.01-3.16-15.5s1.06-10.7,3.16-15.5c2.09-4.76,5-9,8.65-12.58,3.64-3.57,7.91-6.41,12.69-8.44,4.79-2.03,9.95-3.07,15.34-3.07s10.73,1.03,15.58,3.06c4.84,2.03,9.12,4.88,12.71,8.46Z"/>
        <path class="cls-1" d="M636.56,172.64c-3.57,3.58-7.81,6.42-12.59,8.46s-9.99,3.06-15.47,3.06-10.55-1.03-15.37-3.06c-4.83-2.03-9.12-4.87-12.76-8.45-3.64-3.57-6.54-7.8-8.63-12.58-2.09-4.79-3.15-10-3.15-15.5s1.06-10.7,3.15-15.49c2.09-4.77,4.99-9.01,8.63-12.58,3.63-3.58,7.93-6.42,12.76-8.44,4.84-2.03,10.01-3.06,15.37-3.06s10.69,1.03,15.48,3.07c4.77,2.03,9.01,4.88,12.58,8.45,1.48,1.48,2.81,3.1,4.04,4.79,2.23-14.84,6.72-29.41,13.45-43.19-4.45-3.08-9.23-5.76-14.35-7.98-9.75-4.21-20.25-6.35-31.2-6.35-3.22,0-6.63.38-10.14,1.14-3.54.76-7.02,1.81-10.35,3.11-3.3,1.3-6.37,2.84-9.14,4.57-2.67,1.68-4.87,3.52-6.52,5.49l-3.94,4.67V24.55c0-2.98-.52-5.82-1.55-8.44-1.02-2.6-2.44-4.87-4.21-6.75-1.76-1.86-3.91-3.34-6.39-4.4s-5.18-1.6-8.03-1.6-5.56.54-8.03,1.6c-2.5,1.07-4.68,2.56-6.5,4.43-1.83,1.88-3.3,4.16-4.37,6.76-1.07,2.61-1.62,5.44-1.62,8.41v120.02c0,11.07,2.13,21.6,6.35,31.28,4.22,9.7,10.08,18.29,17.43,25.53,7.36,7.25,16.01,13.07,25.73,17.29,9.68,4.21,20.21,6.35,31.28,6.35s21.46-2.14,31.2-6.36c5.35-2.31,10.32-5.15,14.95-8.39-6.8-13.62-11.39-28.05-13.77-42.79-1.3,1.83-2.73,3.57-4.31,5.15Z"/>
        <g>
          <path class="cls-1" d="M32.55,224.02c2.69-1.18,5.03-2.78,7.05-4.8,2.01-2.02,3.61-4.38,4.78-7.07,1.17-2.7,1.76-5.56,1.76-8.59v-119.89c0-3.03-.56-5.89-1.68-8.59-1.12-2.69-2.66-5.05-4.61-7.07-1.96-2.02-4.28-3.62-6.97-4.8-2.68-1.18-5.53-1.77-8.56-1.77s-6.09.59-8.89,1.77c-2.8,1.18-5.23,2.78-7.3,4.8-2.06,2.02-3.72,4.38-4.95,7.07-1.23,2.7-1.84,5.56-1.84,8.59v119.89c0,3.03.61,5.89,1.84,8.59,1.23,2.69,2.89,5.05,4.95,7.07,2.07,2.02,4.47,3.62,7.21,4.8,2.74,1.18,5.62,1.77,8.64,1.77s5.86-.59,8.55-1.77Z"/>
          <path class="cls-1" d="M7.13,40.83c2.18,2.19,4.73,3.91,7.63,5.14,2.91,1.24,5.99,1.85,9.23,1.85s6.32-.62,9.23-1.85c2.9-1.23,5.45-2.95,7.63-5.14s3.92-4.74,5.2-7.66c1.29-2.92,1.93-6,1.93-9.26s-.65-6.48-1.93-9.35c-1.28-2.86-3.02-5.38-5.2-7.57s-4.73-3.9-7.63-5.14c-2.91-1.23-5.99-1.85-9.23-1.85s-6.32.62-9.23,1.85c-2.9,1.24-5.45,2.95-7.63,5.14-2.18,2.19-3.92,4.71-5.21,7.57-1.29,2.87-1.93,5.98-1.93,9.35s.64,6.34,1.93,9.26c1.29,2.92,3.02,5.47,5.21,7.66Z"/>
        </g>
        <path class="cls-1" d="M232.84,220.61c-.89-4.64-1.87-8.34-3.12-11.38-1.12-2.9-2.41-5.44-3.93-7.63-1.12-1.65-2.23-3.12-3.3-4.28l-1.64-1.83c-1.97-2.2-2.28-5.42-.78-7.96l1.26-2.11c1.74-2.9,3.35-6.07,4.82-9.41,4.19-9.64,6.29-20.16,6.29-31.23s-2.1-21.64-6.33-31.45c-.67-1.65-1.47-3.21-2.5-5.22-.22-.53-.49-1.03-.76-1.52l-.36-.58c-.58-1.12-1.16-2.23-1.74-3.17-3.44-5.58-7.45-10.75-11.96-15.26-7.18-7.27-15.84-13.12-25.65-17.4-9.77-4.19-20.34-6.29-31.41-6.29s-21.55,2.1-31.18,6.29c-9.77,4.24-18.42,10.13-25.74,17.44s-13.2,16.01-17.4,25.83c-4.15,9.41-6.29,19.67-6.38,30.38v.94c0,11.11,2.14,21.59,6.38,31.23,4.19,9.72,10.04,18.33,17.4,25.61,7.27,7.27,15.93,13.12,25.74,17.4,9.64,4.15,20.16,6.29,31.18,6.29,8.12,0,15.88-1.12,23.2-3.39l2.92-.67c2.77-.64,5.65.52,7.19,2.91l1.53,2.36c1.74,2.68,2.59,5.98,2.59,10.08,0,2.68-.63,5.13-1.83,7.18l-.31.49c-2.72,4.02-7.23,5.04-10.39,5.44-2.36.31-5.67.49-10.08.53-4.01.04-9.77.13-17.27.13-4.64,0-8.61.63-11.95,1.87-3.79,1.43-7.05,3.08-9.99,5.09-3.03,2.14-5.71,4.46-7.9,6.87-2.63,2.9-5,5.62-7.09,8.16l-.31.36-.31.31c-2.95,3.08-5.09,6.02-6.33,8.92-1.16,2.63-1.74,5.17-1.74,7.76,0,3.03.67,5.84,2.05,8.65,1.43,2.94,3.39,5.58,5.8,7.85,2.5,2.28,5.26,4.06,8.48,5.44,2.9,1.25,5.84,1.87,8.97,1.87,2.28,0,4.51-.4,6.65-1.16,2.1-.8,4.06-2.05,5.89-3.84l2.86-2.72c1.56-1.47,2.86-2.72,3.93-3.66,2.36-2.18,4.64-3.75,6.74-4.77,2.5-1.25,5.26-2.1,8.16-2.54,2.19-.31,5.18-.58,9.82-.89,8.48-.36,16.68-1.61,24.36-3.7,7.14-2.01,13.56-5.22,18.96-9.55,5.4-4.33,9.59-9.95,12.85-17.04,3.26-7.27,4.91-16.64,4.91-27.84,0-5.58-.4-10.75-1.2-15.21ZM188.19,160.41c-2.1,4.77-4.95,9.01-8.57,12.58-3.57,3.57-7.85,6.42-12.71,8.43-4.82,2.05-10.08,3.08-15.57,3.08s-10.53-1.03-15.35-3.08c-4.77-2.01-9.01-4.86-12.67-8.43-3.66-3.57-6.56-7.81-8.65-12.58-2.1-4.77-3.17-9.99-3.17-15.48s1.07-10.71,3.17-15.52c2.1-4.73,4.99-8.97,8.65-12.58,3.66-3.57,7.9-6.38,12.67-8.43,4.82-2.01,9.95-3.08,15.35-3.08s10.75,1.07,15.57,3.08c4.86,2.05,9.14,4.86,12.71,8.48,3.61,3.57,6.47,7.81,8.57,12.54,2.1,4.82,3.17,10.04,3.17,15.52s-1.07,10.71-3.17,15.48Z"/>
      </g>
    </g>
  </g>
</svg>