<?xml version="1.0" encoding="UTF-8"?>
<svg id="Camada_1" data-name="Camada 1" xmlns="http://www.w3.org/2000/svg" width="814.15" height="762.53" viewBox="0 0 814.15 762.53">
  <defs>
    <style>
      .cls-1 {
        fill: #ff7900;
      }

      .cls-2 {
        fill: #04169e;
      }
    </style>
  </defs>
  <g>
    <path class="cls-1" d="M583.51,381.58c0,32.35-26.27,58.61-58.61,58.61-1.28,0-2.57-.04-3.81-.12-30.61-1.94-54.85-27.42-54.85-58.49,0-19.07,9.1-35.99,23.16-46.7,9.31-7.07,20.76-11.42,33.21-11.87.74-.08,1.53-.08,2.28-.08,13.32,0,25.6,4.47,35.45,11.95,14.06,10.71,23.16,27.63,23.16,46.7Z"/>
    <path class="cls-1" d="M257.27,139.03c-4.67,3.99-8.96,8.42-13.11,12.95-45.33,49.54-75.84,112.9-84.46,182.89-1.65,13.36-2.52,27.01-2.52,40.83,0,22.05,2.15,43.64,6.29,64.49,13.9,70.32,50.13,132.73,100.97,179.52l.12.12c3.47,3.27,7.07,6.41,10.71,9.47l-10.84-9.6.12.12c3.85,2.81,7.45,6,10.71,9.47,15.13,16.02,23.63,38.36,21.11,62.68-3.69,35.59-31.71,64.76-67.15,69.75-21.7,3.06-42.07-2.77-57.91-14.29-.04-.04-.12-.08-.17-.12-4.09-3.02-7.9-6.41-11.33-10.13-.17-.17-.33-.29-.5-.5l12,10.75c-2.56-2.19-5.05-4.38-7.53-6.62l-.04-.04c-1.32-1.16-2.61-2.36-3.93-3.6-42.93-38.96-78.88-85.62-105.72-137.7-25.23-48.89-42.4-102.54-49.84-159.29-1.65-12.2-2.81-24.57-3.52-37.06v-.29c-.5-8.98-.74-18.03-.74-27.13,0-13.77.58-27.38,1.7-40.83,4.96-60.35,20.93-117.55,45.83-169.67,26.64-55.8,63.49-105.64,108.21-147.25,0,0-.08.08,0,0l.12-.12C171.54,5.01,192.27-1.94,214.64.47c36.66,3.95,66.17,33.8,69.82,70.49,2.25,22.62-5.08,43.47-18.33,59.12-2.7,3.23-5.68,6.22-8.86,8.95Z"/>
    <path class="cls-1" d="M420.54,256.53s0,.03,0,.04c-3.36,5.86-14.27,13.94-18.78,19.44-14.06,17.12-24.78,37.06-31.15,58.86-4.38,14.93-6.74,30.73-6.74,47.11,0,20.47,3.68,40.08,10.42,58.2,5.58,15.01,13.24,29.04,22.67,41.65,4.92,6.62,10.34,12.86,16.17,18.65,2.9,2.9,5.87,5.63,8.98,8.27l.04.04-.04-.04.04.04c4.38,8.77,6.87,18.7,6.87,29.16,0,35.99-29.16,65.15-65.15,65.15-11.71,0-22.67-3.06-32.14-8.48-3.1-1.74-6-3.72-8.73-5.91l-.08-.08.08.08-.08-.08c-3.72-3.6-7.36-7.36-10.88-11.21-.12-.17-.29-.29-.37-.45-34.7-37.72-59.4-84.71-70.11-136.79-3.89-18.9-5.96-38.51-5.96-58.61,0-15.88,1.28-31.52,3.76-46.7,9.02-55.8,34.04-106.22,70.19-146.47,6.95-7.78,16.75-18.64,23.74-23.08,7-4.44,20.39-8.44,32.06-8.44,35.94,0,65.11,29.16,65.11,65.15,0,12.7-3.64,24.49-9.93,34.5v.04s-.01-.04,0-.04Z"/>
  </g>
  <g>
    <path class="cls-2" d="M588.27,539.13h-.04c-17.83,6.49-37.06,10.05-57.16,10.05-33.59,0-91.08-26.93-91.08-26.93,0,0,13.49,27.81,11.89,44.42-3.18,32.92-31.55,58.55-64.62,58.66-9.42.03-26.43-5.5-26.43-5.5,0,0,103.16,51,164.09,51,44.59,0,86.82-10.09,124.54-28.13h.04l.04-.04c6.46-3.07,15.25-8.14,23.2-12.94,16.01-9.67,27.91-25.23,31.83-43.52.61-2.84.97-5.57.97-8.02,0-35.94-29.16-65.15-65.15-65.15-.02,0-.04,0-.06,0-3.51.01-6.93,1.07-9.88,2.98-8.68,5.6-29.16,18.4-42.17,23.12Z"/>
    <path class="cls-2" d="M814.11,377.52v-.12c0-2.19-.08-4.3-.17-6.49v-.45c-.45-12.08-1.65-23.95-3.56-35.57-22.29-137.57-141.63-242.59-285.49-242.59-59.73,0-115.28,18.12-161.4,49.14,7.28-2.85,15.22-4.38,23.54-4.38,35.99,0,65.15,29.16,65.15,65.15,0,15.59-14.64,41.2-14.64,41.2,0,0,58.9-28.58,93.52-28.58,75.94,0,140.06,50.67,160.41,120.08h-84.13c11.66,12.28,18.82,28.87,18.82,47.11,0,24.57-12.91,46.12-32.35,58.2h164.46c31.02-4.43,54.97-30.65,55.84-62.67v-.12c.04-.58.04-1.12.04-1.7,0-1.61-.04-3.23-.21-4.8v-.45l.17,7.07Z"/>
  </g>
</svg>